<?xml version="1.0" encoding="UTF-8"?>
<svg width="1024px" height="1024px" viewBox="0 0 1024 1024" version="1.1" xmlns="http://www.w3.org/2000/svg" xmlns:xlink="http://www.w3.org/1999/xlink">
    <!-- Generator: Sketch 50.2 (55047) - http://www.bohemiancoding.com/sketch -->
    <title>Coin ICON 2</title>
    <desc>Created with Sketch.</desc>
    <defs></defs>
    <g id="Coin-ICON-2" stroke="none" stroke-width="1" fill="none" fill-rule="evenodd">
        <g id="Group" transform="translate(124.000000, 62.000000)">
            <path d="M387.608546,-30.7542648 L802.221902,208.622868 L802.221902,687.377132 L387.608546,926.754265 L-27.0048095,687.377132 L-27.0048095,208.622868 L387.608546,-30.7542648 Z" id="Polygon" stroke="#232E3E" stroke-width="55" fill="#232E3E"></path>
            <path d="M387.608546,32.7542648 L27.9951905,240.377132 L27.9951905,655.622868 L387.608546,863.245735 L747.221902,655.622868 L747.221902,240.377132 L387.608546,32.7542648 Z" id="Polygon" stroke="#F9BD23" stroke-width="55" fill="#232E3E"></path>
            <g id="g14" transform="translate(387.500000, 448.000000) scale(1, -1) translate(-387.500000, -448.000000) translate(108.000000, 246.000000)" fill="#F9BD23" fill-rule="nonzero">
                <g id="g16-Clipped">
                    <g id="g16" transform="translate(0.060029, 0.329931)">
                        <g id="g22" transform="translate(0.575302, 40.047295)">
                            <path d="M84.405226,51.9355094 L160.571562,51.9355094 C182.727138,51.9355094 216.64087,58.2988586 216.64087,95.3358372 C217.059559,125.514116 184.40189,140.107905 160.571562,140.107905 L84.405226,140.107905 L84.405226,51.9355094 Z M84.405226,190.862283 L160.571562,190.862283 C195.28778,190.862283 209.523174,211.857525 209.523174,226.946665 C209.523174,257.58219 191.938275,269.432499 160.571562,269.432499 L84.405226,269.432499 L84.405226,190.862283 Z M0.283817257,0.304741864 L0.283817257,51.9355094 L33.7788618,51.9355094 L33.7788618,269.013356 L1.12119337,269.013356 L1.12119337,320.186877 L160.571562,320.186877 C217.059559,320.186877 260.149538,294.581065 260.149538,228.318404 C260.149538,202.750696 248.84496,179.888364 222.502503,164.799224 C255.125281,155.654291 269.360675,115.45469 269.360675,93.5068506 C269.360675,16.2702707 217.896935,0.304741864 160.571562,0.304741864 L0.283817257,0.304741864 Z" id="path24"></path>
                        </g>
                        <g id="g26" transform="translate(287.439484, -0.000000)">
                            <path d="M70.0613323,269.476502 C69.841262,276.773995 72.1520001,282.641326 77.3603305,287.995265 C90.5278701,301.563468 118.733547,307.760837 139.126728,307.760837 C164.178064,307.430799 197.665427,299.216536 209.439188,277.250715 L217.58179,262.105667 L266.510753,289.168732 L258.368152,304.020413 C241.716166,334.347181 208.412194,354.44279 165.681877,360.456804 L165.681877,402.701587 L113.45186,402.701587 L113.45186,360.420133 C60.8550581,353.012628 12.8797329,322.905885 14.1634763,267.642961 C16.2174657,201.158766 80.5880283,188.580675 133.331543,178.276175 C181.673652,169.035128 213.363775,160.967548 213.107027,133.941154 C213.107027,102.147554 159.886693,95.1800986 139.346798,95.1800986 C109.930735,95.1800986 70.8682567,104.347803 57.590682,130.274072 L49.9615783,145.235767 L0.0789771241,120.29961 L7.85479436,105.044549 C25.6071318,70.3906249 64.4128613,47.2146672 113.45186,41.384007 L113.45186,0.642726956 L165.241737,0.642726956 L165.241737,41.4573486 C215.967941,47.9114128 268.564742,74.7177815 269.004883,133.537775 C269.004883,207.832855 201.039839,220.850996 143.271385,231.962254 C93.0220002,241.313313 70.5014729,248.940843 70.0613323,269.476502 Z" id="path28"></path>
                        </g>
                    </g>
                </g>
            </g>
            <path d="M342.109771,108.070368 L792.676494,108.057609 L759.576886,164.878383 L375.173461,165.070958 L342.109771,108.070368 Z" id="Rectangle" stroke="#232E3E" stroke-width="2" fill="#232E3E" transform="translate(567.391250, 136.564164) rotate(-330.000000) translate(-567.391250, -136.564164) "></path>
            <path d="M-17.9322382,731.100233 L432.634485,731.087473 L399.534876,787.908248 L15.1314516,788.100822 L-17.9322382,731.100233 Z" id="Rectangle" stroke="#232E3E" stroke-width="2" fill="#232E3E" transform="translate(207.349241, 759.594028) rotate(-150.000000) translate(-207.349241, -759.594028) "></path>
        </g>
    </g>
</svg>